<svg width="40" height="41" viewBox="0 0 40 41" fill="none" xmlns="http://www.w3.org/2000/svg">
<path d="M39.4093 20.3332C39.4093 30.9667 30.8012 39.5856 20.1841 39.5856C9.56693 39.5856 0.958873 30.9667 0.958873 20.3332C0.958873 9.69968 9.56693 1.0807 20.1841 1.0807C30.8012 1.0807 39.4093 9.69968 39.4093 20.3332Z" stroke="#EDF0F4" stroke-width="0.986594"/>
<path d="M16.7469 15.1304C17.2211 15.1304 17.6596 15.1675 18.0603 15.2775C18.424 15.3444 18.771 15.4817 19.0821 15.6817C19.3745 15.8653 19.5934 16.1231 19.7389 16.4538C19.8851 16.7845 19.9578 17.1895 19.9578 17.6301C19.9578 18.1451 19.8487 18.5857 19.5934 18.9164C19.3745 19.2478 19.0094 19.5413 18.5716 19.762C19.192 19.9463 19.6661 20.277 19.9578 20.7176C20.2501 21.159 20.4327 21.7104 20.4327 22.3353C20.4327 22.8503 20.3229 23.2909 20.1403 23.6587C19.9578 24.0266 19.6661 24.3572 19.3374 24.5779C18.9803 24.8145 18.5856 24.9884 18.1702 25.0922C17.7323 25.2029 17.2945 25.2764 16.8567 25.2764H11.9658V15.1304H16.7469ZM16.4545 19.2471C16.856 19.2471 17.1847 19.1371 17.44 18.9535C17.6952 18.77 17.8051 18.4386 17.8051 18.0343C17.8051 17.8136 17.768 17.593 17.6952 17.4466C17.6225 17.2994 17.5127 17.1887 17.3673 17.0787C17.2211 17.0052 17.0749 16.9316 16.8923 16.8952C16.7098 16.858 16.528 16.858 16.3083 16.858H14.192V19.2478H16.4553L16.4545 19.2471ZM16.5643 23.5852C16.7833 23.5852 17.0022 23.548 17.1847 23.5116C17.369 23.4765 17.5433 23.4012 17.6952 23.2909C17.8439 23.1833 17.9683 23.0456 18.0603 22.8867C18.1331 22.7031 18.2065 22.4824 18.2065 22.2253C18.2065 21.7104 18.0603 21.3426 17.7687 21.0854C17.4763 20.8647 17.0749 20.7548 16.6007 20.7548H14.192V23.5859H16.5643V23.5852ZM23.608 23.548C23.8996 23.8423 24.3374 23.9894 24.9214 23.9894C25.3228 23.9894 25.6879 23.8794 25.9796 23.6959C26.2719 23.4752 26.4545 23.2545 26.5272 23.0338H28.3156C28.0232 23.9159 27.5854 24.5408 27.0021 24.945C26.4174 25.3128 25.7243 25.5335 24.885 25.5335C24.3481 25.5352 23.8156 25.4353 23.3156 25.2393C22.8657 25.0703 22.4645 24.7925 22.1476 24.4308C21.8087 24.0924 21.5582 23.6756 21.4181 23.2174C21.2356 22.7395 21.1621 22.2253 21.1621 21.6368C21.1621 21.0854 21.2356 20.5712 21.4181 20.0927C21.5937 19.632 21.8534 19.2082 22.1839 18.8428C22.5127 18.5121 22.9141 18.2186 23.3519 18.0343C23.8393 17.8382 24.3598 17.7383 24.885 17.7401C25.5054 17.7401 26.053 17.8508 26.5272 18.1079C27.0021 18.365 27.3665 18.6593 27.6588 19.1007C27.9571 19.5246 28.1793 19.9973 28.3156 20.4977C28.3883 21.0119 28.4246 21.5268 28.3883 22.1146H23.0967C23.0967 22.7031 23.3156 23.2545 23.608 23.5488V23.548ZM25.9068 19.6884C25.6516 19.4313 25.2501 19.2842 24.7752 19.2842C24.4967 19.28 24.2214 19.343 23.9723 19.4678C23.7534 19.5785 23.608 19.7256 23.4618 19.8727C23.3274 20.0149 23.2385 20.1939 23.2065 20.3869C23.1694 20.5712 23.133 20.7176 23.133 20.8647H26.4174C26.3447 20.3134 26.1621 19.9463 25.9068 19.6884ZM22.6952 15.8289H26.7825V16.8216H22.696V15.8289H22.6952Z" fill="#EDF0F4"/>
</svg>
