<svg width="249" height="55" viewBox="0 0 249 55" fill="none" xmlns="http://www.w3.org/2000/svg">
<path d="M92.1345 26.2107V34.3635C90.0963 36.3451 86.8126 37.534 83.6986 37.534C77.8671 37.534 73.2529 33.854 73.2529 27.5695C73.2529 21.3134 77.8671 17.605 83.727 17.605C86.9541 17.605 89.332 18.4825 91.4268 20.8038L87.8034 24.4556C86.671 23.0968 85.5953 22.6439 83.8685 22.6439C80.9527 22.6439 79.2542 24.5688 79.2542 27.5695C79.2542 30.5702 80.7829 32.4952 83.8968 32.4952C85.0291 32.4952 85.8218 32.2404 86.4729 31.8724V30.457H83.3589V26.2107H92.1345Z" fill="#EDF0F4"/>
<path d="M100.804 17.9447V31.8158H109.127V37.1943H94.9727V17.9447H100.804Z" fill="#EDF0F4"/>
<path d="M125.42 17.9447V23.0402H116.645V25.135H125.052V29.9474H116.645V32.0988H125.562V37.1943H110.813V17.9447H125.42Z" fill="#EDF0F4"/>
<path d="M142.422 17.9447V23.0402H133.646V25.135H142.054V29.9474H133.646V32.0988H142.563V37.1943H127.815V17.9447H142.422Z" fill="#EDF0F4"/>
<path d="M144.816 17.9447H153.592C160.103 17.9447 164.434 21.6531 164.434 27.5129C164.434 33.486 160.103 37.1943 153.592 37.1943H144.816V17.9447ZM150.648 23.4931V31.6459H153.649C156.479 31.6459 158.319 30.3154 158.319 27.5129C158.319 24.7953 156.479 23.4931 153.649 23.4931H150.648Z" fill="#EDF0F4"/>
<path d="M181.069 17.9447V23.0402H172.294V25.135H180.701V29.9474H172.294V32.0988H181.211V37.1943H166.462V17.9447H181.069Z" fill="#EDF0F4"/>
<path d="M197.37 19.7847L194.454 24.2857C193.322 23.3516 191.963 22.6722 190.406 22.6722C188.906 22.6722 188.623 23.1534 188.623 23.6347C188.623 24.4839 189.274 24.5688 191.85 25.5879C195.332 26.975 197.653 28.1357 197.653 31.5327C197.653 34.9863 194.879 37.534 189.812 37.534C186.952 37.534 184.376 36.9679 182.338 35.9205V30.089C185.084 32.0705 187.66 32.4952 189.444 32.4952C191.142 32.4952 191.567 31.9573 191.567 31.3911C191.567 30.7684 191.425 30.5985 189.076 29.7209C185.537 28.3905 182.621 27.0033 182.621 23.1817C182.621 19.5299 186.131 17.605 190.151 17.605C192.642 17.605 194.794 18.1428 197.37 19.7847Z" fill="#EDF0F4"/>
<path d="M205.411 17.9447V37.1943H199.636V17.9447H205.411Z" fill="#EDF0F4"/>
<path d="M226.323 26.2107V34.3635C224.284 36.3451 221.001 37.534 217.887 37.534C212.055 37.534 207.441 33.854 207.441 27.5695C207.441 21.3134 212.055 17.605 217.915 17.605C221.142 17.605 223.52 18.4825 225.615 20.8038L221.991 24.4556C220.859 23.0968 219.783 22.6439 218.057 22.6439C215.141 22.6439 213.442 24.5688 213.442 27.5695C213.442 30.5702 214.971 32.4952 218.085 32.4952C219.217 32.4952 220.01 32.2404 220.661 31.8724V30.457H217.547V26.2107H226.323Z" fill="#EDF0F4"/>
<path d="M248.014 17.9447V37.1943H243.485L234.992 27.5129V37.1943H229.161V17.9447H233.69L242.183 27.6261V17.9447H248.014Z" fill="#EDF0F4"/>
<path d="M53.1299 45.1169C53.2698 45.1169 53.3837 45.2311 53.3798 45.371C53.2476 50.1873 49.3676 54.0664 44.5522 54.1986C44.4123 54.2025 44.2982 54.0886 44.2982 53.9487V45.6238C44.2982 45.3439 44.5251 45.1169 44.805 45.1169H53.1299Z" fill="#EDF0F4"/>
<path fill-rule="evenodd" clip-rule="evenodd" d="M17.5436 6.83057C23.718 5.86788 29.8755 9.69711 31.645 15.7274C32.6834 19.2664 32.2608 22.9091 31.8479 26.4674C31.8278 26.6403 31.8078 26.813 31.7879 26.9854C31.356 30.7387 32.3237 32.4036 36.397 32.2979C40.1412 32.2013 43.8977 32.4674 47.6483 32.7331C48.4849 32.7924 49.3211 32.8516 50.1569 32.9068C52.2489 33.0447 52.9124 32.2646 53.1833 30.1689C55.0224 15.9327 43.7265 2.31204 28.8298 0.990676C21.031 0.298679 13.7012 3.20703 8.38946 8.31994C3.0153 13.356 -0.2657 20.5169 0.0169009 28.3333C0.556826 43.2787 13.5676 55.272 27.8805 54.1805C29.9876 54.0197 30.8014 53.3979 30.7731 51.3015C30.7617 50.464 30.7463 49.6258 30.7309 48.7873C30.6619 45.028 30.5927 41.2626 30.8852 37.5286C31.2039 33.4665 29.5919 32.413 25.8212 32.6478C25.648 32.6586 25.4745 32.6696 25.3008 32.6806C21.7257 32.9067 18.0659 33.1381 14.5861 31.9159C8.65667 29.8332 5.15496 23.4837 6.43947 17.3682C7.01171 14.6419 8.38869 12.2657 10.2619 10.4747L10.263 10.476C10.2927 10.4468 10.3226 10.4177 10.3526 10.3888C10.3885 10.3551 10.4246 10.3217 10.4609 10.2884L10.4595 10.287C12.3461 8.51008 14.7911 7.25935 17.5436 6.83057Z" fill="#EDF0F4"/>
</svg>
