<svg width="41" height="41" viewBox="0 0 41 41" fill="none" xmlns="http://www.w3.org/2000/svg">
<path d="M39.8231 20.3332C39.8231 30.9667 31.215 39.5856 20.5979 39.5856C9.98075 39.5856 1.37269 30.9667 1.37269 20.3332C1.37269 9.69968 9.98074 1.0807 20.5979 1.0807C31.215 1.0807 39.8231 9.69968 39.8231 20.3332Z" stroke="#EDF0F4" stroke-width="0.986594"/>
<path d="M20.5978 15.8735C19.7188 15.8735 18.8595 16.1345 18.1286 16.6236C17.3977 17.1126 16.828 17.8077 16.4916 18.621C16.1552 19.4342 16.0672 20.3291 16.2387 21.1925C16.4102 22.0558 16.8335 22.8488 17.455 23.4713C18.0766 24.0937 18.8686 24.5176 19.7307 24.6893C20.5929 24.861 21.4865 24.7729 22.2986 24.436C23.1108 24.0992 23.8049 23.5287 24.2933 22.7968C24.7816 22.0649 25.0423 21.2044 25.0423 20.3242C25.0437 19.7393 24.9297 19.1599 24.7069 18.6193C24.484 18.0787 24.1567 17.5875 23.7437 17.1739C23.3307 16.7603 22.8402 16.4325 22.3003 16.2094C21.7604 15.9862 21.1819 15.8721 20.5978 15.8735ZM20.5978 23.2225C20.0253 23.2225 19.4657 23.0525 18.9898 22.7341C18.5138 22.4156 18.1428 21.9629 17.9238 21.4333C17.7047 20.9037 17.6474 20.321 17.7591 19.7587C17.8707 19.1965 18.1464 18.6801 18.5512 18.2747C18.956 17.8694 19.4717 17.5933 20.0331 17.4815C20.5946 17.3697 21.1765 17.4271 21.7054 17.6464C22.2343 17.8658 22.6863 18.2373 23.0044 18.7139C23.3224 19.1906 23.4921 19.7509 23.4921 20.3242C23.4921 21.0929 23.1872 21.8301 22.6444 22.3736C22.1016 22.9172 21.3654 23.2225 20.5978 23.2225ZM26.2672 15.689C26.2672 15.9037 26.2037 16.1136 26.0846 16.2921C25.9654 16.4706 25.7961 16.6097 25.5981 16.6919C25.4 16.774 25.182 16.7955 24.9717 16.7536C24.7615 16.7118 24.5683 16.6084 24.4167 16.4566C24.2651 16.3047 24.1619 16.1113 24.12 15.9008C24.0782 15.6902 24.0997 15.4719 24.1817 15.2736C24.2638 15.0752 24.4027 14.9057 24.581 14.7864C24.7592 14.6671 24.9688 14.6035 25.1832 14.6035C25.4707 14.6035 25.7464 14.7178 25.9497 14.9214C26.153 15.125 26.2672 15.4011 26.2672 15.689ZM29.205 16.7745C29.2365 15.425 28.7338 14.1178 27.8066 13.138C26.8334 12.1976 25.5273 11.6823 24.1751 11.7051C22.7658 11.64 18.4297 11.64 17.0205 11.7051C15.6733 11.6759 14.3687 12.1789 13.389 13.1054C12.4618 14.0852 11.9591 15.3924 11.9906 16.7419C11.9256 18.1531 11.9256 22.4952 11.9906 23.9064C11.9591 25.2559 12.4618 26.5631 13.389 27.5429C14.3687 28.4694 15.6733 28.9725 17.0205 28.9433C18.4514 29.0301 22.7442 29.0301 24.1751 28.9433C25.5227 28.9748 26.8281 28.4714 27.8066 27.5429C28.7338 26.5631 29.2365 25.2559 29.205 23.9064C29.27 22.4952 29.27 18.1531 29.205 16.7419V16.7745ZM27.3621 25.4587C27.2149 25.8321 26.9927 26.1712 26.7093 26.455C26.4259 26.7388 26.0872 26.9613 25.7144 27.1087C24.0315 27.4494 22.3112 27.5662 20.5978 27.4561C18.888 27.5664 17.1712 27.4496 15.492 27.1087C15.1192 26.9613 14.7806 26.7388 14.4971 26.455C14.2137 26.1712 13.9915 25.8321 13.8443 25.4587C13.389 24.3081 13.4866 21.5942 13.4866 20.335C13.4866 19.0758 13.389 16.3512 13.8443 15.2113C13.9873 14.8343 14.2079 14.4916 14.4918 14.2055C14.7757 13.9193 15.1165 13.6962 15.492 13.5505C17.1712 13.2096 18.888 13.0928 20.5978 13.2031C22.3112 13.093 24.0315 13.2098 25.7144 13.5505C26.0872 13.6979 26.4259 13.9204 26.7093 14.2042C26.9927 14.488 27.2149 14.8271 27.3621 15.2005C27.8174 16.3512 27.709 19.065 27.709 20.3242C27.709 21.5834 27.8174 24.3081 27.3621 25.4479V25.4587Z" fill="#EDF0F4"/>
</svg>
