<svg width="149" height="33" viewBox="0 0 149 33" fill="none" xmlns="http://www.w3.org/2000/svg">
<path d="M55.5439 15.3298V20.1991C54.3266 21.3826 52.3653 22.0927 50.5055 22.0927C47.0226 22.0927 44.2667 19.8948 44.2667 16.1413C44.2667 12.4048 47.0226 10.1899 50.5224 10.1899C52.4499 10.1899 53.8701 10.7141 55.1212 12.1005L52.9571 14.2815C52.2808 13.47 51.6383 13.1995 50.607 13.1995C48.8655 13.1995 47.8511 14.3492 47.8511 16.1413C47.8511 17.9335 48.7641 19.0832 50.6239 19.0832C51.3002 19.0832 51.7736 18.931 52.1625 18.7112V17.8659H50.3026V15.3298H55.5439Z" fill="black"/>
<path d="M60.7219 10.3928V18.6774H65.6927V21.8898H57.239V10.3928H60.7219Z" fill="black"/>
<path d="M75.4241 10.3928V13.4362H70.1828V14.6873H75.2043V17.5615H70.1828V18.8465H75.5086V21.8898H66.6999V10.3928H75.4241Z" fill="black"/>
<path d="M85.5784 10.3928V13.4362H80.3371V14.6873H85.3586V17.5615H80.3371V18.8465H85.6629V21.8898H76.8542V10.3928H85.5784Z" fill="black"/>
<path d="M87.0085 10.3928H92.2498C96.1385 10.3928 98.7253 12.6077 98.7253 16.1075C98.7253 19.675 96.1385 21.8898 92.2498 21.8898H87.0085V10.3928ZM90.4914 13.7067V18.576H92.2836C93.9743 18.576 95.0733 17.7813 95.0733 16.1075C95.0733 14.4844 93.9743 13.7067 92.2836 13.7067H90.4914Z" fill="black"/>
<path d="M108.661 10.3928V13.4362H103.42V14.6873H108.441V17.5615H103.42V18.8465H108.745V21.8898H99.9367V10.3928H108.661Z" fill="black"/>
<path d="M118.396 11.4918L116.655 14.1801C115.979 13.6221 115.167 13.2164 114.237 13.2164C113.341 13.2164 113.172 13.5038 113.172 13.7912C113.172 14.2984 113.561 14.3492 115.1 14.9578C117.179 15.7863 118.566 16.4795 118.566 18.5084C118.566 20.5711 116.909 22.0927 113.882 22.0927C112.175 22.0927 110.636 21.7546 109.419 21.129V17.6461C111.059 18.8296 112.597 19.0832 113.662 19.0832C114.677 19.0832 114.93 18.762 114.93 18.4238C114.93 18.0519 114.846 17.9504 113.443 17.4263C111.329 16.6316 109.588 15.8032 109.588 13.5207C109.588 11.3396 111.684 10.1899 114.085 10.1899C115.573 10.1899 116.858 10.5112 118.396 11.4918Z" fill="black"/>
<path d="M123.199 10.3928V21.8898H119.75V10.3928H123.199Z" fill="black"/>
<path d="M135.689 15.3298V20.1991C134.471 21.3826 132.51 22.0927 130.65 22.0927C127.167 22.0927 124.412 19.8948 124.412 16.1413C124.412 12.4048 127.167 10.1899 130.667 10.1899C132.595 10.1899 134.015 10.7141 135.266 12.1005L133.102 14.2815C132.426 13.47 131.783 13.1995 130.752 13.1995C129.01 13.1995 127.996 14.3492 127.996 16.1413C127.996 17.9335 128.909 19.0832 130.769 19.0832C131.445 19.0832 131.918 18.931 132.307 18.7112V17.8659H130.447V15.3298H135.689Z" fill="black"/>
<path d="M148.644 10.3928V21.8898H145.939L140.867 16.1075V21.8898H137.384V10.3928H140.089L145.161 16.1751V10.3928H148.644Z" fill="black"/>
<path d="M32.2481 26.6217C32.3317 26.6217 32.3997 26.6899 32.3974 26.7735C32.3184 29.65 30.0011 31.9668 27.1251 32.0458C27.0415 32.0481 26.9733 31.9801 26.9733 31.8965V26.9244C26.9733 26.7572 27.1089 26.6217 27.2761 26.6217H32.2481Z" fill="#4E4AD0"/>
<path fill-rule="evenodd" clip-rule="evenodd" d="M10.9939 3.7548C14.6817 3.17983 18.3593 5.46686 19.4161 9.0685C20.0363 11.1822 19.7839 13.3578 19.5373 15.4831C19.5253 15.5863 19.5133 15.6894 19.5015 15.7924C19.2435 18.0341 19.8215 19.0285 22.2543 18.9654C24.4906 18.9076 26.7342 19.0666 28.9742 19.2253C29.4739 19.2607 29.9733 19.2961 30.4725 19.329C31.722 19.4114 32.1183 18.9455 32.28 17.6938C33.3785 9.19113 26.6319 1.05608 17.7347 0.266883C13.078 -0.146314 8.70127 1.58974 5.52898 4.64204C2.31781 7.65 0.357197 11.9278 0.526024 16.5974C0.848498 25.5236 8.61931 32.6868 17.1678 32.0348C18.4262 31.9388 18.9123 31.5674 18.8954 30.3154C18.8886 29.8151 18.8794 29.3145 18.8702 28.8137C18.829 26.5684 18.7877 24.3195 18.9623 22.0894C19.1527 19.6632 18.1899 19.034 15.9378 19.1743C15.8344 19.1807 15.7308 19.1873 15.627 19.1938C13.4918 19.3289 11.3059 19.4671 9.22759 18.7371C5.68619 17.4932 3.59477 13.701 4.36195 10.0484C4.70372 8.42015 5.52612 7.00093 6.64491 5.93126L6.6456 5.93204C6.66413 5.91383 6.68277 5.89572 6.7015 5.87769C6.72216 5.85833 6.74292 5.83908 6.76377 5.81995L6.76297 5.81916C7.88973 4.75789 9.35005 4.01089 10.9939 3.7548Z" fill="#4E4AD0"/>
</svg>
