<svg width="28" height="23" viewBox="0 0 28 23" fill="none" xmlns="http://www.w3.org/2000/svg">
<path fill-rule="evenodd" clip-rule="evenodd" d="M0.88797 7.82607C0.88797 3.90984 4.06271 0.735107 7.97894 0.735107H20.3111C24.2273 0.735107 27.402 3.90984 27.402 7.82607V15.2253C27.402 19.1416 24.2273 22.3163 20.3111 22.3163H7.97894C4.06271 22.3163 0.88797 19.1416 0.88797 15.2253V7.82607ZM7.30438 7.20565C6.89728 6.89711 6.31713 6.97701 6.00859 7.38412C5.70006 7.79122 5.77996 8.37136 6.18706 8.6799L12.0966 13.1586C13.3079 14.0767 14.9821 14.0767 16.1934 13.1586L22.1029 8.6799C22.51 8.37136 22.5899 7.79122 22.2814 7.38412C21.9729 6.97701 21.3927 6.89711 20.9856 7.20565L15.0761 11.6844C14.5255 12.1017 13.7645 12.1017 13.2139 11.6844L7.30438 7.20565Z" fill="#4E4AD0"/>
</svg>
