<svg width="22" height="22" viewBox="0 0 22 22" fill="none" xmlns="http://www.w3.org/2000/svg">
<path d="M6.61018 1.49846C5.64233 0.893019 4.37291 0.993319 3.55589 1.81147L2.1714 3.19788C0.0686599 5.30354 2.04446 10.696 6.58447 15.2423C11.1245 19.7886 16.5095 21.7671 18.6123 19.6615L19.9967 18.2751C20.9525 17.318 20.9273 15.7409 19.9403 14.7525L17.7959 12.6051C16.8089 11.6168 15.234 11.5915 14.2782 12.5486L13.9808 12.8464C13.4648 13.3631 12.6323 13.4137 12.0512 12.9335C11.4907 12.4704 10.9325 11.9711 10.3918 11.4297C9.85119 10.8883 9.35256 10.3293 8.89005 9.768C8.41054 9.18612 8.46103 8.35249 8.97708 7.83573L9.27445 7.53794C10.0279 6.7834 10.1717 5.64355 9.71527 4.71062" stroke="white" stroke-width="1.47989" stroke-linecap="round"/>
<path d="M17.0675 7.30584C16.805 6.66459 16.4137 6.06381 15.8938 5.54314C15.4032 5.05186 14.8414 4.67535 14.2416 4.41359" stroke="white" stroke-width="1.47989" stroke-linecap="round"/>
<path d="M14.2416 0.747327C15.6775 1.26825 17.0248 2.10511 18.176 3.25791C19.3561 4.43965 20.2047 5.8277 20.7217 7.30621" stroke="white" stroke-width="1.47989" stroke-linecap="round"/>
</svg>
